<mxfile host="app.diagrams.net" modified="2024-03-25T12:14:05.592Z" agent="Mozilla/5.0 (Windows NT 10.0; Win64; x64) AppleWebKit/537.36 (KHTML, like Gecko) Chrome/122.0.0.0 Safari/537.36 Edg/122.0.0.0" etag="pcWUzggmeXpFyY8bz8xl" version="24.1.0" type="github">
  <diagram name="Page-1" id="c4acf3e9-155e-7222-9cf6-157b1a14988f">
    <mxGraphModel dx="946" dy="673" grid="1" gridSize="10" guides="1" tooltips="1" connect="1" arrows="1" fold="1" page="1" pageScale="1" pageWidth="850" pageHeight="1100" background="none" math="0" shadow="0">
      <root>
        <mxCell id="0" />
        <mxCell id="1" parent="0" />
        <mxCell id="G2VUMVJBavb5kRMbLVS6-1" value="用户" style="shape=umlActor;verticalLabelPosition=bottom;verticalAlign=top;html=1;outlineConnect=0;" vertex="1" parent="1">
          <mxGeometry x="310" y="270" width="30" height="60" as="geometry" />
        </mxCell>
        <mxCell id="G2VUMVJBavb5kRMbLVS6-4" value="混合检索" style="ellipse;whiteSpace=wrap;html=1;" vertex="1" parent="1">
          <mxGeometry x="490" y="170" width="120" height="80" as="geometry" />
        </mxCell>
        <mxCell id="G2VUMVJBavb5kRMbLVS6-5" value="专家检索" style="ellipse;whiteSpace=wrap;html=1;" vertex="1" parent="1">
          <mxGeometry x="450" y="290" width="120" height="80" as="geometry" />
        </mxCell>
        <mxCell id="G2VUMVJBavb5kRMbLVS6-6" value="企业检索" style="ellipse;whiteSpace=wrap;html=1;" vertex="1" parent="1">
          <mxGeometry x="425" y="390" width="120" height="80" as="geometry" />
        </mxCell>
        <mxCell id="G2VUMVJBavb5kRMbLVS6-7" value="成果检索" style="ellipse;whiteSpace=wrap;html=1;" vertex="1" parent="1">
          <mxGeometry x="400" y="500" width="120" height="80" as="geometry" />
        </mxCell>
        <mxCell id="G2VUMVJBavb5kRMbLVS6-8" value="专家详细信息查看" style="ellipse;whiteSpace=wrap;html=1;" vertex="1" parent="1">
          <mxGeometry x="130" y="180" width="120" height="80" as="geometry" />
        </mxCell>
        <mxCell id="G2VUMVJBavb5kRMbLVS6-9" value="企业详细信息查看" style="ellipse;whiteSpace=wrap;html=1;" vertex="1" parent="1">
          <mxGeometry x="130" y="290" width="120" height="80" as="geometry" />
        </mxCell>
        <mxCell id="G2VUMVJBavb5kRMbLVS6-10" value="成果详细信息查看" style="ellipse;whiteSpace=wrap;html=1;" vertex="1" parent="1">
          <mxGeometry x="140" y="430" width="120" height="80" as="geometry" />
        </mxCell>
      </root>
    </mxGraphModel>
  </diagram>
</mxfile>
